<mxfile host="app.diagrams.net" agent="Mozilla/5.0 (Windows NT 10.0; Win64; x64) AppleWebKit/537.36 (KHTML, like Gecko) Chrome/126.0.0.0 Safari/537.36" version="24.7.7">
  <diagram name="第 1 页" id="pRwHNNlRCIsjpIY2URZG">
    <mxGraphModel dx="2536" dy="927" grid="1" gridSize="10" guides="1" tooltips="1" connect="1" arrows="1" fold="1" page="1" pageScale="1" pageWidth="827" pageHeight="1169" math="0" shadow="0">
      <root>
        <mxCell id="0" />
        <mxCell id="1" parent="0" />
        <mxCell id="WlolENBASXnC9q6rWEca-1" value="SE-SDK" style="shape=umlLifeline;perimeter=lifelinePerimeter;whiteSpace=wrap;html=1;container=0;dropTarget=0;collapsible=0;recursiveResize=0;outlineConnect=0;portConstraint=eastwest;newEdgeStyle={&quot;edgeStyle&quot;:&quot;elbowEdgeStyle&quot;,&quot;elbow&quot;:&quot;vertical&quot;,&quot;curved&quot;:0,&quot;rounded&quot;:0};" vertex="1" parent="1">
          <mxGeometry x="-350" y="40" width="100" height="790" as="geometry" />
        </mxCell>
        <mxCell id="WlolENBASXnC9q6rWEca-2" value="" style="html=1;points=[];perimeter=orthogonalPerimeter;outlineConnect=0;targetShapes=umlLifeline;portConstraint=eastwest;newEdgeStyle={&quot;edgeStyle&quot;:&quot;elbowEdgeStyle&quot;,&quot;elbow&quot;:&quot;vertical&quot;,&quot;curved&quot;:0,&quot;rounded&quot;:0};" vertex="1" parent="WlolENBASXnC9q6rWEca-1">
          <mxGeometry x="45" y="80" width="10" height="90" as="geometry" />
        </mxCell>
        <mxCell id="WlolENBASXnC9q6rWEca-3" value="" style="html=1;points=[];perimeter=orthogonalPerimeter;outlineConnect=0;targetShapes=umlLifeline;portConstraint=eastwest;newEdgeStyle={&quot;edgeStyle&quot;:&quot;elbowEdgeStyle&quot;,&quot;elbow&quot;:&quot;vertical&quot;,&quot;curved&quot;:0,&quot;rounded&quot;:0};" vertex="1" parent="WlolENBASXnC9q6rWEca-1">
          <mxGeometry x="45" y="533" width="10" height="99" as="geometry" />
        </mxCell>
        <mxCell id="WlolENBASXnC9q6rWEca-4" value="SDK" style="shape=umlLifeline;perimeter=lifelinePerimeter;whiteSpace=wrap;html=1;container=0;dropTarget=0;collapsible=0;recursiveResize=0;outlineConnect=0;portConstraint=eastwest;newEdgeStyle={&quot;edgeStyle&quot;:&quot;elbowEdgeStyle&quot;,&quot;elbow&quot;:&quot;vertical&quot;,&quot;curved&quot;:0,&quot;rounded&quot;:0};" vertex="1" parent="1">
          <mxGeometry x="-160" y="40" width="100" height="790" as="geometry" />
        </mxCell>
        <mxCell id="WlolENBASXnC9q6rWEca-5" value="" style="html=1;points=[];perimeter=orthogonalPerimeter;outlineConnect=0;targetShapes=umlLifeline;portConstraint=eastwest;newEdgeStyle={&quot;edgeStyle&quot;:&quot;elbowEdgeStyle&quot;,&quot;elbow&quot;:&quot;vertical&quot;,&quot;curved&quot;:0,&quot;rounded&quot;:0};" vertex="1" parent="WlolENBASXnC9q6rWEca-4">
          <mxGeometry x="45" y="60" width="10" height="350" as="geometry" />
        </mxCell>
        <mxCell id="WlolENBASXnC9q6rWEca-6" value="" style="html=1;points=[];perimeter=orthogonalPerimeter;outlineConnect=0;targetShapes=umlLifeline;portConstraint=eastwest;newEdgeStyle={&quot;edgeStyle&quot;:&quot;elbowEdgeStyle&quot;,&quot;elbow&quot;:&quot;vertical&quot;,&quot;curved&quot;:0,&quot;rounded&quot;:0};" vertex="1" parent="WlolENBASXnC9q6rWEca-4">
          <mxGeometry x="45" y="492" width="10" height="390" as="geometry" />
        </mxCell>
        <mxCell id="WlolENBASXnC9q6rWEca-7" value="撤销人车关系" style="html=1;verticalAlign=bottom;endArrow=block;edgeStyle=elbowEdgeStyle;elbow=vertical;curved=0;rounded=0;" edge="1" parent="1">
          <mxGeometry relative="1" as="geometry">
            <mxPoint x="-117" y="134" as="sourcePoint" />
            <Array as="points" />
            <mxPoint x="-292" y="134" as="targetPoint" />
          </mxGeometry>
        </mxCell>
        <mxCell id="WlolENBASXnC9q6rWEca-9" value="返回签名数据" style="html=1;verticalAlign=bottom;endArrow=open;dashed=1;endSize=8;edgeStyle=elbowEdgeStyle;elbow=vertical;curved=0;rounded=0;" edge="1" parent="1">
          <mxGeometry relative="1" as="geometry">
            <mxPoint x="-115" y="195" as="targetPoint" />
            <Array as="points">
              <mxPoint x="-200" y="195" />
            </Array>
            <mxPoint x="-290" y="195" as="sourcePoint" />
          </mxGeometry>
        </mxCell>
        <mxCell id="WlolENBASXnC9q6rWEca-10" value="DeviceOEM-Server" style="shape=umlLifeline;perimeter=lifelinePerimeter;whiteSpace=wrap;html=1;container=0;dropTarget=0;collapsible=0;recursiveResize=0;outlineConnect=0;portConstraint=eastwest;newEdgeStyle={&quot;edgeStyle&quot;:&quot;elbowEdgeStyle&quot;,&quot;elbow&quot;:&quot;vertical&quot;,&quot;curved&quot;:0,&quot;rounded&quot;:0};" vertex="1" parent="1">
          <mxGeometry x="60" y="40" width="140" height="790" as="geometry" />
        </mxCell>
        <mxCell id="WlolENBASXnC9q6rWEca-11" value="" style="html=1;points=[];perimeter=orthogonalPerimeter;outlineConnect=0;targetShapes=umlLifeline;portConstraint=eastwest;newEdgeStyle={&quot;edgeStyle&quot;:&quot;elbowEdgeStyle&quot;,&quot;elbow&quot;:&quot;vertical&quot;,&quot;curved&quot;:0,&quot;rounded&quot;:0};" vertex="1" parent="WlolENBASXnC9q6rWEca-10">
          <mxGeometry x="65" y="140" width="10" height="220" as="geometry" />
        </mxCell>
        <mxCell id="WlolENBASXnC9q6rWEca-12" value="" style="html=1;points=[];perimeter=orthogonalPerimeter;outlineConnect=0;targetShapes=umlLifeline;portConstraint=eastwest;newEdgeStyle={&quot;edgeStyle&quot;:&quot;elbowEdgeStyle&quot;,&quot;elbow&quot;:&quot;vertical&quot;,&quot;curved&quot;:0,&quot;rounded&quot;:0};" vertex="1" parent="WlolENBASXnC9q6rWEca-10">
          <mxGeometry x="65" y="622" width="10" height="125" as="geometry" />
        </mxCell>
        <mxCell id="WlolENBASXnC9q6rWEca-13" value="" style="endArrow=classic;html=1;rounded=0;" edge="1" parent="WlolENBASXnC9q6rWEca-10">
          <mxGeometry width="50" height="50" relative="1" as="geometry">
            <mxPoint x="80" y="688" as="sourcePoint" />
            <mxPoint x="290" y="688" as="targetPoint" />
          </mxGeometry>
        </mxCell>
        <mxCell id="WlolENBASXnC9q6rWEca-14" value="请求钥匙下载" style="edgeLabel;html=1;align=center;verticalAlign=middle;resizable=0;points=[];" vertex="1" connectable="0" parent="WlolENBASXnC9q6rWEca-13">
          <mxGeometry x="-0.1703" y="2" relative="1" as="geometry">
            <mxPoint as="offset" />
          </mxGeometry>
        </mxCell>
        <mxCell id="WlolENBASXnC9q6rWEca-15" value="返回钥匙" style="html=1;verticalAlign=bottom;endArrow=open;dashed=1;endSize=8;edgeStyle=elbowEdgeStyle;elbow=vertical;curved=0;rounded=0;" edge="1" parent="WlolENBASXnC9q6rWEca-10" target="WlolENBASXnC9q6rWEca-12">
          <mxGeometry relative="1" as="geometry">
            <mxPoint x="80" y="724" as="targetPoint" />
            <Array as="points" />
            <mxPoint x="290" y="726" as="sourcePoint" />
          </mxGeometry>
        </mxCell>
        <mxCell id="WlolENBASXnC9q6rWEca-16" value="验证请求设备合法性&lt;div&gt;验证pincode&lt;/div&gt;" style="html=1;align=left;spacingLeft=2;endArrow=block;rounded=0;edgeStyle=orthogonalEdgeStyle;curved=0;rounded=0;fontFamily=Helvetica;fontSize=12;fontColor=default;" edge="1" parent="WlolENBASXnC9q6rWEca-10">
          <mxGeometry relative="1" as="geometry">
            <mxPoint x="75" y="643" as="sourcePoint" />
            <Array as="points">
              <mxPoint x="105" y="643" />
              <mxPoint x="105" y="673" />
            </Array>
            <mxPoint x="75" y="673" as="targetPoint" />
          </mxGeometry>
        </mxCell>
        <mxCell id="WlolENBASXnC9q6rWEca-17" value="VehicleOEM-Server" style="shape=umlLifeline;perimeter=lifelinePerimeter;whiteSpace=wrap;html=1;container=0;dropTarget=0;collapsible=0;recursiveResize=0;outlineConnect=0;portConstraint=eastwest;newEdgeStyle={&quot;edgeStyle&quot;:&quot;elbowEdgeStyle&quot;,&quot;elbow&quot;:&quot;vertical&quot;,&quot;curved&quot;:0,&quot;rounded&quot;:0};" vertex="1" parent="1">
          <mxGeometry x="290" y="40" width="140" height="790" as="geometry" />
        </mxCell>
        <mxCell id="WlolENBASXnC9q6rWEca-18" value="" style="html=1;points=[];perimeter=orthogonalPerimeter;outlineConnect=0;targetShapes=umlLifeline;portConstraint=eastwest;newEdgeStyle={&quot;edgeStyle&quot;:&quot;elbowEdgeStyle&quot;,&quot;elbow&quot;:&quot;vertical&quot;,&quot;curved&quot;:0,&quot;rounded&quot;:0};" vertex="1" parent="WlolENBASXnC9q6rWEca-17">
          <mxGeometry x="65" y="682" width="10" height="120" as="geometry" />
        </mxCell>
        <mxCell id="WlolENBASXnC9q6rWEca-19" value="&amp;nbsp;生成钥匙" style="html=1;align=left;spacingLeft=2;endArrow=block;rounded=0;edgeStyle=orthogonalEdgeStyle;curved=0;rounded=0;fontFamily=Helvetica;fontSize=12;fontColor=default;" edge="1" parent="WlolENBASXnC9q6rWEca-17">
          <mxGeometry relative="1" as="geometry">
            <mxPoint x="75" y="691" as="sourcePoint" />
            <Array as="points">
              <mxPoint x="110" y="691" />
              <mxPoint x="110" y="721" />
            </Array>
            <mxPoint x="75" y="721" as="targetPoint" />
          </mxGeometry>
        </mxCell>
        <mxCell id="WlolENBASXnC9q6rWEca-43" value="" style="html=1;points=[];perimeter=orthogonalPerimeter;outlineConnect=0;targetShapes=umlLifeline;portConstraint=eastwest;newEdgeStyle={&quot;edgeStyle&quot;:&quot;elbowEdgeStyle&quot;,&quot;elbow&quot;:&quot;vertical&quot;,&quot;curved&quot;:0,&quot;rounded&quot;:0};" vertex="1" parent="WlolENBASXnC9q6rWEca-17">
          <mxGeometry x="65" y="210" width="10" height="140" as="geometry" />
        </mxCell>
        <mxCell id="WlolENBASXnC9q6rWEca-44" value="撤销当前用户下所有钥匙" style="html=1;align=left;spacingLeft=2;endArrow=block;rounded=0;edgeStyle=orthogonalEdgeStyle;curved=0;rounded=0;fontFamily=Helvetica;fontSize=12;fontColor=default;" edge="1" parent="WlolENBASXnC9q6rWEca-17">
          <mxGeometry relative="1" as="geometry">
            <mxPoint x="75" y="219" as="sourcePoint" />
            <Array as="points">
              <mxPoint x="110" y="219" />
              <mxPoint x="110" y="249" />
            </Array>
            <mxPoint x="75" y="249" as="targetPoint" />
          </mxGeometry>
        </mxCell>
        <mxCell id="WlolENBASXnC9q6rWEca-20" value="Vehicle" style="shape=umlLifeline;perimeter=lifelinePerimeter;whiteSpace=wrap;html=1;container=0;dropTarget=0;collapsible=0;recursiveResize=0;outlineConnect=0;portConstraint=eastwest;newEdgeStyle={&quot;edgeStyle&quot;:&quot;elbowEdgeStyle&quot;,&quot;elbow&quot;:&quot;vertical&quot;,&quot;curved&quot;:0,&quot;rounded&quot;:0};" vertex="1" parent="1">
          <mxGeometry x="530" y="40" width="140" height="790" as="geometry" />
        </mxCell>
        <mxCell id="WlolENBASXnC9q6rWEca-47" value="" style="html=1;points=[];perimeter=orthogonalPerimeter;outlineConnect=0;targetShapes=umlLifeline;portConstraint=eastwest;newEdgeStyle={&quot;edgeStyle&quot;:&quot;elbowEdgeStyle&quot;,&quot;elbow&quot;:&quot;vertical&quot;,&quot;curved&quot;:0,&quot;rounded&quot;:0};" vertex="1" parent="WlolENBASXnC9q6rWEca-20">
          <mxGeometry x="65" y="260" width="10" height="80" as="geometry" />
        </mxCell>
        <mxCell id="WlolENBASXnC9q6rWEca-21" value="" style="endArrow=classic;html=1;rounded=0;" edge="1" parent="1">
          <mxGeometry width="50" height="50" relative="1" as="geometry">
            <mxPoint x="-105" y="199" as="sourcePoint" />
            <mxPoint x="120" y="199" as="targetPoint" />
          </mxGeometry>
        </mxCell>
        <mxCell id="WlolENBASXnC9q6rWEca-22" value="撤销人车关系请求" style="edgeLabel;html=1;align=center;verticalAlign=middle;resizable=0;points=[];" vertex="1" connectable="0" parent="WlolENBASXnC9q6rWEca-21">
          <mxGeometry x="-0.1703" y="2" relative="1" as="geometry">
            <mxPoint as="offset" />
          </mxGeometry>
        </mxCell>
        <mxCell id="WlolENBASXnC9q6rWEca-23" value="&lt;font style=&quot;font-size: 11px;&quot;&gt;验证请求设备合法性&lt;/font&gt;" style="html=1;align=left;spacingLeft=2;endArrow=block;rounded=0;edgeStyle=orthogonalEdgeStyle;curved=0;rounded=0;fontFamily=Helvetica;fontSize=12;fontColor=default;" edge="1" parent="1">
          <mxGeometry relative="1" as="geometry">
            <mxPoint x="135" y="201" as="sourcePoint" />
            <Array as="points">
              <mxPoint x="165" y="201" />
              <mxPoint x="165" y="231" />
            </Array>
            <mxPoint x="135" y="231" as="targetPoint" />
          </mxGeometry>
        </mxCell>
        <mxCell id="WlolENBASXnC9q6rWEca-24" value="撤销人车关系" style="html=1;align=left;spacingLeft=2;endArrow=block;rounded=0;edgeStyle=orthogonalEdgeStyle;curved=0;rounded=0;fontFamily=Helvetica;fontSize=12;fontColor=default;" edge="1" parent="1">
          <mxGeometry relative="1" as="geometry">
            <mxPoint x="-100" y="400" as="sourcePoint" />
            <Array as="points">
              <mxPoint x="-70" y="400" />
              <mxPoint x="-70" y="430" />
            </Array>
            <mxPoint x="-100" y="430" as="targetPoint" />
          </mxGeometry>
        </mxCell>
        <mxCell id="WlolENBASXnC9q6rWEca-25" value="撤销钥匙" style="shape=umlFrame;whiteSpace=wrap;html=1;pointerEvents=0;sketch=0;strokeColor=default;align=center;verticalAlign=middle;fontFamily=Helvetica;fontSize=12;fontColor=default;fillColor=default;" vertex="1" parent="1">
          <mxGeometry x="-440" y="90" width="1230" height="380" as="geometry" />
        </mxCell>
        <mxCell id="WlolENBASXnC9q6rWEca-26" value="撤销请求数据签名" style="html=1;align=left;spacingLeft=2;endArrow=block;rounded=0;edgeStyle=orthogonalEdgeStyle;curved=0;rounded=0;fontFamily=Helvetica;fontSize=12;fontColor=default;" edge="1" parent="1">
          <mxGeometry relative="1" as="geometry">
            <mxPoint x="-290" y="150" as="sourcePoint" />
            <Array as="points">
              <mxPoint x="-260" y="150" />
              <mxPoint x="-260" y="180" />
            </Array>
            <mxPoint x="-290" y="180" as="targetPoint" />
          </mxGeometry>
        </mxCell>
        <mxCell id="WlolENBASXnC9q6rWEca-27" value="查看分享链接等业务信息&lt;div&gt;（分享人、过期时间、车辆信息等）&lt;/div&gt;" style="html=1;align=left;spacingLeft=2;endArrow=block;rounded=0;edgeStyle=orthogonalEdgeStyle;curved=0;rounded=0;fontFamily=Helvetica;fontSize=12;fontColor=default;" edge="1" parent="1">
          <mxGeometry relative="1" as="geometry">
            <mxPoint x="-102" y="548" as="sourcePoint" />
            <Array as="points">
              <mxPoint x="-72" y="548" />
              <mxPoint x="-72" y="578" />
            </Array>
            <mxPoint x="-102" y="578" as="targetPoint" />
          </mxGeometry>
        </mxCell>
        <mxCell id="WlolENBASXnC9q6rWEca-28" value="" style="endArrow=classic;html=1;rounded=0;" edge="1" parent="1">
          <mxGeometry width="50" height="50" relative="1" as="geometry">
            <mxPoint x="-115" y="589" as="sourcePoint" />
            <mxPoint x="-297.5" y="589" as="targetPoint" />
          </mxGeometry>
        </mxCell>
        <mxCell id="WlolENBASXnC9q6rWEca-29" value="分享人请求下载" style="edgeLabel;html=1;align=center;verticalAlign=middle;resizable=0;points=[];" vertex="1" connectable="0" parent="WlolENBASXnC9q6rWEca-28">
          <mxGeometry x="-0.1703" y="2" relative="1" as="geometry">
            <mxPoint x="-11" y="-3" as="offset" />
          </mxGeometry>
        </mxCell>
        <mxCell id="WlolENBASXnC9q6rWEca-30" value="请求下载钥匙签名" style="html=1;align=left;spacingLeft=2;endArrow=block;rounded=0;edgeStyle=orthogonalEdgeStyle;curved=0;rounded=0;fontFamily=Helvetica;fontSize=12;fontColor=default;" edge="1" parent="1">
          <mxGeometry relative="1" as="geometry">
            <mxPoint x="-295" y="608" as="sourcePoint" />
            <Array as="points">
              <mxPoint x="-265" y="608" />
              <mxPoint x="-265" y="638" />
            </Array>
            <mxPoint x="-295" y="638" as="targetPoint" />
          </mxGeometry>
        </mxCell>
        <mxCell id="WlolENBASXnC9q6rWEca-31" value="返回签名数据" style="html=1;verticalAlign=bottom;endArrow=open;dashed=1;endSize=8;edgeStyle=elbowEdgeStyle;elbow=vertical;curved=0;rounded=0;" edge="1" parent="1">
          <mxGeometry relative="1" as="geometry">
            <mxPoint x="-115" y="663" as="targetPoint" />
            <Array as="points">
              <mxPoint x="-200" y="663" />
            </Array>
            <mxPoint x="-290" y="663" as="sourcePoint" />
          </mxGeometry>
        </mxCell>
        <mxCell id="WlolENBASXnC9q6rWEca-32" value="" style="endArrow=classic;html=1;rounded=0;" edge="1" parent="1">
          <mxGeometry width="50" height="50" relative="1" as="geometry">
            <mxPoint x="-100" y="677" as="sourcePoint" />
            <mxPoint x="125" y="677" as="targetPoint" />
          </mxGeometry>
        </mxCell>
        <mxCell id="WlolENBASXnC9q6rWEca-33" value="通过pincode下载分享钥匙" style="edgeLabel;html=1;align=center;verticalAlign=middle;resizable=0;points=[];" vertex="1" connectable="0" parent="WlolENBASXnC9q6rWEca-32">
          <mxGeometry x="-0.1703" y="2" relative="1" as="geometry">
            <mxPoint as="offset" />
          </mxGeometry>
        </mxCell>
        <mxCell id="WlolENBASXnC9q6rWEca-34" value="车主过户" style="shape=umlFrame;whiteSpace=wrap;html=1;pointerEvents=0;sketch=0;strokeColor=default;align=center;verticalAlign=middle;fontFamily=Helvetica;fontSize=12;fontColor=default;fillColor=default;" vertex="1" parent="1">
          <mxGeometry x="-440" y="522" width="1230" height="440" as="geometry" />
        </mxCell>
        <mxCell id="WlolENBASXnC9q6rWEca-35" value="返回钥匙" style="html=1;verticalAlign=bottom;endArrow=open;dashed=1;endSize=8;edgeStyle=elbowEdgeStyle;elbow=vertical;curved=0;rounded=0;" edge="1" parent="1" target="WlolENBASXnC9q6rWEca-6">
          <mxGeometry relative="1" as="geometry">
            <mxPoint x="-90" y="776" as="targetPoint" />
            <Array as="points" />
            <mxPoint x="125" y="776" as="sourcePoint" />
          </mxGeometry>
        </mxCell>
        <mxCell id="WlolENBASXnC9q6rWEca-36" value="" style="endArrow=classic;html=1;rounded=0;" edge="1" parent="1">
          <mxGeometry width="50" height="50" relative="1" as="geometry">
            <mxPoint x="-117.5" y="792" as="sourcePoint" />
            <mxPoint x="-300" y="792" as="targetPoint" />
          </mxGeometry>
        </mxCell>
        <mxCell id="WlolENBASXnC9q6rWEca-37" value="保存钥匙" style="edgeLabel;html=1;align=center;verticalAlign=middle;resizable=0;points=[];" vertex="1" connectable="0" parent="WlolENBASXnC9q6rWEca-36">
          <mxGeometry x="-0.1703" y="2" relative="1" as="geometry">
            <mxPoint x="-11" y="-3" as="offset" />
          </mxGeometry>
        </mxCell>
        <mxCell id="WlolENBASXnC9q6rWEca-38" value="" style="html=1;points=[];perimeter=orthogonalPerimeter;outlineConnect=0;targetShapes=umlLifeline;portConstraint=eastwest;newEdgeStyle={&quot;edgeStyle&quot;:&quot;elbowEdgeStyle&quot;,&quot;elbow&quot;:&quot;vertical&quot;,&quot;curved&quot;:0,&quot;rounded&quot;:0};" vertex="1" parent="1">
          <mxGeometry x="-306" y="773" width="10" height="99" as="geometry" />
        </mxCell>
        <mxCell id="WlolENBASXnC9q6rWEca-39" value="验证数据合法性&lt;div&gt;保存钥匙&lt;/div&gt;" style="html=1;align=left;spacingLeft=2;endArrow=block;rounded=0;edgeStyle=orthogonalEdgeStyle;curved=0;rounded=0;fontFamily=Helvetica;fontSize=12;fontColor=default;" edge="1" parent="1">
          <mxGeometry relative="1" as="geometry">
            <mxPoint x="-296" y="808" as="sourcePoint" />
            <Array as="points">
              <mxPoint x="-266" y="808" />
              <mxPoint x="-266" y="838" />
            </Array>
            <mxPoint x="-296" y="838" as="targetPoint" />
          </mxGeometry>
        </mxCell>
        <mxCell id="WlolENBASXnC9q6rWEca-40" value="返回签名数据" style="html=1;verticalAlign=bottom;endArrow=open;dashed=1;endSize=8;edgeStyle=elbowEdgeStyle;elbow=vertical;curved=0;rounded=0;" edge="1" parent="1">
          <mxGeometry relative="1" as="geometry">
            <mxPoint x="-121" y="862" as="targetPoint" />
            <Array as="points">
              <mxPoint x="-206" y="862" />
            </Array>
            <mxPoint x="-296" y="862" as="sourcePoint" />
          </mxGeometry>
        </mxCell>
        <mxCell id="WlolENBASXnC9q6rWEca-41" value="" style="endArrow=classic;html=1;rounded=0;" edge="1" parent="1">
          <mxGeometry width="50" height="50" relative="1" as="geometry">
            <mxPoint x="140" y="260" as="sourcePoint" />
            <mxPoint x="355" y="260" as="targetPoint" />
          </mxGeometry>
        </mxCell>
        <mxCell id="WlolENBASXnC9q6rWEca-42" value="撤销人车关系请求" style="edgeLabel;html=1;align=center;verticalAlign=middle;resizable=0;points=[];" vertex="1" connectable="0" parent="WlolENBASXnC9q6rWEca-41">
          <mxGeometry x="-0.1703" y="2" relative="1" as="geometry">
            <mxPoint as="offset" />
          </mxGeometry>
        </mxCell>
        <mxCell id="WlolENBASXnC9q6rWEca-45" value="" style="endArrow=classic;html=1;rounded=0;" edge="1" parent="1">
          <mxGeometry width="50" height="50" relative="1" as="geometry">
            <mxPoint x="370" y="320" as="sourcePoint" />
            <mxPoint x="595" y="320" as="targetPoint" />
          </mxGeometry>
        </mxCell>
        <mxCell id="WlolENBASXnC9q6rWEca-46" value="撤销分享钥匙请求" style="edgeLabel;html=1;align=center;verticalAlign=middle;resizable=0;points=[];" vertex="1" connectable="0" parent="WlolENBASXnC9q6rWEca-45">
          <mxGeometry x="-0.1703" y="2" relative="1" as="geometry">
            <mxPoint as="offset" />
          </mxGeometry>
        </mxCell>
        <mxCell id="WlolENBASXnC9q6rWEca-48" value="撤销当前用户下所有钥匙" style="html=1;align=left;spacingLeft=2;endArrow=block;rounded=0;edgeStyle=orthogonalEdgeStyle;curved=0;rounded=0;fontFamily=Helvetica;fontSize=12;fontColor=default;" edge="1" parent="1">
          <mxGeometry relative="1" as="geometry">
            <mxPoint x="609" y="330" as="sourcePoint" />
            <Array as="points">
              <mxPoint x="644" y="330" />
              <mxPoint x="644" y="360" />
            </Array>
            <mxPoint x="609" y="360" as="targetPoint" />
          </mxGeometry>
        </mxCell>
        <mxCell id="WlolENBASXnC9q6rWEca-49" value="返回" style="html=1;verticalAlign=bottom;endArrow=open;dashed=1;endSize=8;edgeStyle=elbowEdgeStyle;elbow=vertical;curved=0;rounded=0;" edge="1" parent="1">
          <mxGeometry relative="1" as="geometry">
            <mxPoint x="367" y="370" as="targetPoint" />
            <Array as="points" />
            <mxPoint x="595" y="370" as="sourcePoint" />
          </mxGeometry>
        </mxCell>
        <mxCell id="WlolENBASXnC9q6rWEca-50" value="返回" style="html=1;verticalAlign=bottom;endArrow=open;dashed=1;endSize=8;edgeStyle=elbowEdgeStyle;elbow=vertical;curved=0;rounded=0;" edge="1" parent="1">
          <mxGeometry relative="1" as="geometry">
            <mxPoint x="140" y="380" as="targetPoint" />
            <Array as="points" />
            <mxPoint x="355" y="380" as="sourcePoint" />
          </mxGeometry>
        </mxCell>
        <mxCell id="WlolENBASXnC9q6rWEca-51" value="返回" style="html=1;verticalAlign=bottom;endArrow=open;dashed=1;endSize=8;edgeStyle=elbowEdgeStyle;elbow=vertical;curved=0;rounded=0;" edge="1" parent="1" target="WlolENBASXnC9q6rWEca-5">
          <mxGeometry relative="1" as="geometry">
            <mxPoint x="-90" y="390" as="targetPoint" />
            <Array as="points" />
            <mxPoint x="125" y="390" as="sourcePoint" />
          </mxGeometry>
        </mxCell>
      </root>
    </mxGraphModel>
  </diagram>
</mxfile>
